STARTFONT 2.1
FONT HAN-GB2312
SIZE 10 72 72
FONTBOUNDINGBOX 4 10 0 0
STARTPROPERTIES 1
BITCOUNT 8
ENDPROPERTIES
CHARS 94
STARTCHAR  00A4
ENCODING  164
SWIDTH  1000 0
DWIDTH  4 0
BBX  4 6 0 2
BITMAP
40406020
60FFF040
20FFF000
20FFF000
60FFF040
40404020
ENDCHAR
STARTCHAR  00A7
ENCODING  167
SWIDTH  1000 0
DWIDTH  5 0
BBX  4 8 1 -1
BITMAP
80F0E030
F0608060
A0F08000
E080E060
F080E060
40E0F020
E030E080
80E0E020
ENDCHAR
STARTCHAR  00A8
ENCODING  168
SWIDTH  1000 0
DWIDTH  3 0
BBX  4 1 -1 7
BITMAP
20F020F0
ENDCHAR
STARTCHAR  00B0
ENCODING  176
SWIDTH  1000 0
DWIDTH  4 0
BBX  2 3 1 4
BITMAP
A0A0
C080
A0A0
ENDCHAR
STARTCHAR  00B1
ENCODING  177
SWIDTH  1000 0
DWIDTH  5 0
BBX  5 3 0 2
BITMAP
0020F00000
80FFFFFF40
0020F00000
ENDCHAR
STARTCHAR  00B7
ENCODING  183
SWIDTH  1000 0
DWIDTH  2 0
BBX  2 1 0 3
BITMAP
20F0
ENDCHAR
STARTCHAR  00D7
ENCODING  215
SWIDTH  1000 0
DWIDTH  4 0
BBX  4 5 0 1
BITMAP
00000000
60808040
00E0C000
6080A040
00000000
ENDCHAR
STARTCHAR  00E0
ENCODING  224
SWIDTH  1000 0
DWIDTH  4 0
BBX  4 8 0 0
BITMAP
10C04000
00E0F000
00F0FF10
30E0E040
60A0C060
8080A080
A0F0F0C0
E03040E0
ENDCHAR
STARTCHAR  00E1
ENCODING  225
SWIDTH  1000 0
DWIDTH  4 0
BBX  4 8 0 0
BITMAP
0030C010
00E0F000
00F0FF10
30E0E040
60A0C060
8080A080
A0F0F0C0
E03040E0
ENDCHAR
STARTCHAR  00E8
ENCODING  232
SWIDTH  1000 0
DWIDTH  4 0
BBX  4 8 0 0
BITMAP
00808000
20FFFFE0
20F00000
20F00000
20FFFF80
20F00000
20F00000
20FFFFE0
ENDCHAR
STARTCHAR  00E9
ENCODING  233
SWIDTH  1000 0
DWIDTH  4 0
BBX  4 9 0 0
BITMAP
00006030
00006000
20FFFFE0
20F00000
20F00000
20FFFF80
20F00000
20F00000
20FFFFE0
ENDCHAR
STARTCHAR  00EA
ENCODING  234
SWIDTH  1000 0
DWIDTH  4 0
BBX  4 9 0 0
BITMAP
00308010
00604040
20FFFFE0
20F00000
20F00000
20FFFF80
20F00000
20F00000
20FFFFE0
ENDCHAR
STARTCHAR  00EC
ENCODING  236
SWIDTH  1000 0
DWIDTH  2 0
BBX  2 8 0 0
BITMAP
60A0
20F0
20F0
20F0
20F0
20F0
20F0
20F0
ENDCHAR
STARTCHAR  00ED
ENCODING  237
SWIDTH  1000 0
DWIDTH  2 0
BBX  3 8 0 0
BITMAP
00A040
20F000
20F000
20F000
20F000
20F000
20F000
20F000
ENDCHAR
STARTCHAR  00F2
ENCODING  242
SWIDTH  1000 0
DWIDTH  4 0
BBX  4 8 0 0
BITMAP
00608000
00A0F080
20FF40F0
20F020F0
20F020F0
20F020F0
20FF40F0
00A0F080
ENDCHAR
STARTCHAR  00F3
ENCODING  243
SWIDTH  1000 0
DWIDTH  4 0
BBX  4 8 0 0
BITMAP
0000A030
00A0F080
20FF40F0
20F020F0
20F020F0
20F020F0
20FF40F0
00A0F080
ENDCHAR
STARTCHAR  00F7
ENCODING  247
SWIDTH  1000 0
DWIDTH  4 0
BBX  5 4 0 1
BITMAP
0020F00000
60FFFFFF20
0000000000
0020F00000
ENDCHAR
STARTCHAR  00F9
ENCODING  249
SWIDTH  1000 0
DWIDTH  4 0
BBX  4 8 0 0
BITMAP
00608000
20F020F0
20F020F0
20F020F0
20F020F0
20F020F0
20FF40F0
00A0F080
ENDCHAR
STARTCHAR  00FA
ENCODING  250
SWIDTH  1000 0
DWIDTH  4 0
BBX  4 8 0 0
BITMAP
0000A030
20F020F0
20F020F0
20F020F0
20F020F0
20F020F0
20FF40F0
00A0F080
ENDCHAR
STARTCHAR  00FC
ENCODING  252
SWIDTH  1000 0
DWIDTH  4 0
BBX  4 8 0 0
BITMAP
20F020F0
20F020F0
20F020F0
20F020F0
20F020F0
20F020F0
20FF40F0
00A0F080
ENDCHAR
STARTCHAR  0401
ENCODING  1025
SWIDTH  1000 0
DWIDTH  4 0
BBX  5 8 0 0
BITMAP
20F020F000
20FFFFFF20
20F0000000
20F0000000
20FFFFC000
20F0000000
20F0000000
20FFFFFF20
ENDCHAR
STARTCHAR  0410
ENCODING  1040
SWIDTH  1000 0
DWIDTH  4 0
BBX  4 7 0 0
BITMAP
00E0F000
10F0FF10
30E0E040
60A0C060
8080A080
A0F0F0C0
E03040E0
ENDCHAR
STARTCHAR  0411
ENCODING  1041
SWIDTH  1000 0
DWIDTH  4 0
BBX  4 7 0 0
BITMAP
20FFFFA0
20F00000
20F00000
20FFF080
20F030F0
20F030F0
20FFF080
ENDCHAR
STARTCHAR  0412
ENCODING  1042
SWIDTH  1000 0
DWIDTH  4 0
BBX  4 7 0 0
BITMAP
20FFF080
20F030F0
20F030E0
20FFFF80
20F030E0
20F030F0
20FFF080
ENDCHAR
STARTCHAR  0413
ENCODING  1043
SWIDTH  1000 0
DWIDTH  4 0
BBX  4 7 0 0
BITMAP
20FFFFC0
20F00000
20F00000
20F00000
20F00000
20F00000
20F00000
ENDCHAR
STARTCHAR  0414
ENCODING  1044
SWIDTH  1000 0
DWIDTH  5 0
BBX  6 8 -1 -1
BITMAP
0020FFFFF000
0020F020F000
0020F020F000
0020F020F000
0020F020F000
0030F020F000
20FFFFFFFFE0
20E0000080C0
ENDCHAR
STARTCHAR  0415
ENCODING  1045
SWIDTH  1000 0
DWIDTH  4 0
BBX  4 7 0 0
BITMAP
20FFFFE0
20F00000
20F00000
20FFFF80
20F00000
20F00000
20FFFFE0
ENDCHAR
STARTCHAR  0416
ENCODING  1046
SWIDTH  1000 0
DWIDTH  7 0
BBX  7 7 0 0
BITMAP
60A020F000E040
10E040F060C000
0080C0F0E04000
0040FFFFFF2000
00A0C0FFC08000
20F030F040E000
80A020F000E040
ENDCHAR
STARTCHAR  0417
ENCODING  1047
SWIDTH  1000 0
DWIDTH  4 0
BBX  4 7 0 0
BITMAP
00A0F080
20FF40F0
108030E0
0000E080
108030E0
20FF30F0
00C0F080
ENDCHAR
STARTCHAR  0418
ENCODING  1048
SWIDTH  1000 0
DWIDTH  4 0
BBX  4 7 0 0
BITMAP
20F080F0
20F0A0F0
20F0C0F0
20F0A0F0
20FFA0F0
20FF60F0
20FF40F0
ENDCHAR
STARTCHAR  0419
ENCODING  1049
SWIDTH  1000 0
DWIDTH  4 0
BBX  4 8 0 0
BITMAP
0080FF60
20F080F0
20F0A0F0
20F0C0F0
20F0A0F0
20FFA0F0
20FF60F0
20FF40F0
ENDCHAR
STARTCHAR  041A
ENCODING  1050
SWIDTH  1000 0
DWIDTH  5 0
BBX  5 7 0 0
BITMAP
20F000E040
20F060C000
20F0E04000
20FFFF2000
20FFC08000
20F030E000
20F000E040
ENDCHAR
STARTCHAR  041B
ENCODING  1051
SWIDTH  1000 0
DWIDTH  4 0
BBX  5 7 -1 0
BITMAP
0020FFFFF0
0020F020F0
0020F020F0
0020F020F0
0020F020F0
0030F020F0
20FF8020F0
ENDCHAR
STARTCHAR  041C
ENCODING  1052
SWIDTH  1000 0
DWIDTH  6 0
BBX  6 7 0 0
BITMAP
20FFA000C0F0
20FFE000F0F0
20F0F020F0F0
20F0E080C0F0
20F0A0E0A0F0
20F060FF60F0
20F040FF40F0
ENDCHAR
STARTCHAR  041D
ENCODING  1053
SWIDTH  1000 0
DWIDTH  4 0
BBX  4 7 0 0
BITMAP
20F020F0
20F020F0
20F020F0
20FFFFF0
20F020F0
20F020F0
20F020F0
ENDCHAR
STARTCHAR  041E
ENCODING  1054
SWIDTH  1000 0
DWIDTH  4 0
BBX  4 7 0 0
BITMAP
00A0F080
20FF40F0
20F020F0
20F020F0
20F020F0
20FF40F0
00A0F080
ENDCHAR
STARTCHAR  041F
ENCODING  1055
SWIDTH  1000 0
DWIDTH  4 0
BBX  4 7 0 0
BITMAP
20FFFFF0
20F020F0
20F020F0
20F020F0
20F020F0
20F020F0
20F020F0
ENDCHAR
STARTCHAR  0420
ENCODING  1056
SWIDTH  1000 0
DWIDTH  4 0
BBX  4 7 0 0
BITMAP
20FFF080
20F030F0
20F030F0
20FFF080
20F00000
20F00000
20F00000
ENDCHAR
STARTCHAR  0421
ENCODING  1057
SWIDTH  1000 0
DWIDTH  4 0
BBX  4 7 0 0
BITMAP
00A0F080
20FF40F0
20F01060
20F00000
20F010A0
20FF40F0
00A0F080
ENDCHAR
STARTCHAR  0422
ENCODING  1058
SWIDTH  1000 0
DWIDTH  3 0
BBX  5 7 -1 0
BITMAP
40FFFFFF20
0020F00000
0020F00000
0020F00000
0020F00000
0020F00000
0020F00000
ENDCHAR
STARTCHAR  0423
ENCODING  1059
SWIDTH  1000 0
DWIDTH  5 0
BBX  5 7 0 0
BITMAP
80A00060A0
20F000A060
00E040E020
0080A0E000
0040FF8000
0010FF4000
00FFC00000
ENDCHAR
STARTCHAR  0424
ENCODING  1060
SWIDTH  1000 0
DWIDTH  6 0
BBX  6 7 0 0
BITMAP
00A0FFFFF080
10FF30F030E0
20F020F020F0
20F020F020F0
10FF30F030E0
00A0F0FFF080
000020F00000
ENDCHAR
STARTCHAR  0425
ENCODING  1061
SWIDTH  1000 0
DWIDTH  4 0
BBX  5 7 0 0
BITMAP
A08020E000
40E0808000
00F0E04000
00C0FF0000
10F0E04000
60A080A000
A06030F010
ENDCHAR
STARTCHAR  0426
ENCODING  1062
SWIDTH  1000 0
DWIDTH  5 0
BBX  5 8 0 -1
BITMAP
20F020F000
20F020F000
20F020F000
20F020F000
20F020F000
20F020F000
20FFFFFFE0
00000080A0
ENDCHAR
STARTCHAR  0427
ENCODING  1063
SWIDTH  1000 0
DWIDTH  4 0
BBX  4 7 0 0
BITMAP
20F020F0
20F020F0
20FF30F0
00C0FFF0
000020F0
000020F0
000020F0
ENDCHAR
STARTCHAR  0428
ENCODING  1064
SWIDTH  1000 0
DWIDTH  6 0
BBX  6 7 0 0
BITMAP
20F020F020F0
20F020F020F0
20F020F020F0
20F020F020F0
20F020F020F0
20F020F020F0
20FFFFFFFFF0
ENDCHAR
STARTCHAR  0429
ENCODING  1065
SWIDTH  1000 0
DWIDTH  6 0
BBX  7 8 0 -1
BITMAP
20F020F020F000
20F020F020F000
20F020F020F000
20F020F020F000
20F020F020F000
20F020F020F000
20FFFFFFFFFF60
00000000008040
ENDCHAR
STARTCHAR  042A
ENCODING  1066
SWIDTH  1000 0
DWIDTH  4 0
BBX  5 7 -1 0
BITMAP
10FFF00000
0020F00000
0020F00000
0020FFF080
0020F030F0
0020F030F0
0020FFF080
ENDCHAR
STARTCHAR  042B
ENCODING  1067
SWIDTH  1000 0
DWIDTH  6 0
BBX  6 7 0 0
BITMAP
20F0000020F0
20F0000020F0
20F0000020F0
20FFF08020F0
20F030F020F0
20F030F020F0
20FFF08020F0
ENDCHAR
STARTCHAR  042C
ENCODING  1068
SWIDTH  1000 0
DWIDTH  4 0
BBX  4 7 0 0
BITMAP
20F00000
20F00000
20F00000
20FFF080
20F030F0
20F030F0
20FFF080
ENDCHAR
STARTCHAR  042D
ENCODING  1069
SWIDTH  1000 0
DWIDTH  4 0
BBX  4 7 0 0
BITMAP
00A0F080
20FF40F0
106020F0
0060FFF0
10A020F0
20FF40F0
00A0F080
ENDCHAR
STARTCHAR  042E
ENCODING  1070
SWIDTH  1000 0
DWIDTH  6 0
BBX  6 7 0 0
BITMAP
20F000A0F080
20F020FF40F0
20F020F020F0
20FFFFF020F0
20F020F020F0
20F020FF40F0
20F000A0F080
ENDCHAR
STARTCHAR  042F
ENCODING  1071
SWIDTH  1000 0
DWIDTH  4 0
BBX  4 7 0 0
BITMAP
00C0FFF0
20FF30F0
10FF30F0
00C0FFF0
10FF30F0
20F020F0
30F020F0
ENDCHAR
STARTCHAR  0430
ENCODING  1072
SWIDTH  1000 0
DWIDTH  4 0
BBX  4 7 0 0
BITMAP
00E0F000
10F0FF10
30E0E040
60A0C060
8080A080
A0F0F0C0
E03040E0
ENDCHAR
STARTCHAR  0431
ENCODING  1073
SWIDTH  1000 0
DWIDTH  4 0
BBX  4 7 0 0
BITMAP
20FFFFA0
20F00000
20F00000
20FFF080
20F030F0
20F030F0
20FFF080
ENDCHAR
STARTCHAR  0432
ENCODING  1074
SWIDTH  1000 0
DWIDTH  4 0
BBX  4 7 0 0
BITMAP
20FFF080
20F030F0
20F030E0
20FFFF80
20F030E0
20F030F0
20FFF080
ENDCHAR
STARTCHAR  0433
ENCODING  1075
SWIDTH  1000 0
DWIDTH  4 0
BBX  4 7 0 0
BITMAP
20FFFFC0
20F00000
20F00000
20F00000
20F00000
20F00000
20F00000
ENDCHAR
STARTCHAR  0434
ENCODING  1076
SWIDTH  1000 0
DWIDTH  5 0
BBX  6 8 -1 -1
BITMAP
0020FFFFF000
0020F020F000
0020F020F000
0020F020F000
0020F020F000
0030F020F000
20FFFFFFFFE0
20E0000080C0
ENDCHAR
STARTCHAR  0435
ENCODING  1077
SWIDTH  1000 0
DWIDTH  4 0
BBX  4 7 0 0
BITMAP
20FFFFE0
20F00000
20F00000
20FFFF80
20F00000
20F00000
20FFFFE0
ENDCHAR
STARTCHAR  0436
ENCODING  1078
SWIDTH  1000 0
DWIDTH  7 0
BBX  7 7 0 0
BITMAP
60A020F000E040
10E040F060C000
0080C0F0E04000
0040FFFFFF2000
00A0C0FFC08000
20F030F040E000
80A020F000E040
ENDCHAR
STARTCHAR  0437
ENCODING  1079
SWIDTH  1000 0
DWIDTH  4 0
BBX  4 7 0 0
BITMAP
00A0F080
20FF40F0
108030E0
0000E080
108030E0
20FF30F0
00C0F080
ENDCHAR
STARTCHAR  0438
ENCODING  1080
SWIDTH  1000 0
DWIDTH  4 0
BBX  4 7 0 0
BITMAP
20F080F0
20F0A0F0
20F0C0F0
20F0A0F0
20FFA0F0
20FF60F0
20FF40F0
ENDCHAR
STARTCHAR  0439
ENCODING  1081
SWIDTH  1000 0
DWIDTH  4 0
BBX  4 8 0 0
BITMAP
0080FF60
20F080F0
20F0A0F0
20F0C0F0
20F0A0F0
20FFA0F0
20FF60F0
20FF40F0
ENDCHAR
STARTCHAR  043A
ENCODING  1082
SWIDTH  1000 0
DWIDTH  5 0
BBX  5 7 0 0
BITMAP
20F000E040
20F060C000
20F0E04000
20FFFF2000
20FFC08000
20F030E000
20F000E040
ENDCHAR
STARTCHAR  043B
ENCODING  1083
SWIDTH  1000 0
DWIDTH  4 0
BBX  5 7 -1 0
BITMAP
0020FFFFF0
0020F020F0
0020F020F0
0020F020F0
0020F020F0
0030F020F0
20FF8020F0
ENDCHAR
STARTCHAR  043C
ENCODING  1084
SWIDTH  1000 0
DWIDTH  6 0
BBX  6 7 0 0
BITMAP
20FFA000C0F0
20FFE000F0F0
20F0F020F0F0
20F0E080C0F0
20F0A0E0A0F0
20F060FF60F0
20F040FF40F0
ENDCHAR
STARTCHAR  043D
ENCODING  1085
SWIDTH  1000 0
DWIDTH  4 0
BBX  4 7 0 0
BITMAP
20F020F0
20F020F0
20F020F0
20FFFFF0
20F020F0
20F020F0
20F020F0
ENDCHAR
STARTCHAR  043E
ENCODING  1086
SWIDTH  1000 0
DWIDTH  4 0
BBX  4 7 0 0
BITMAP
00A0F080
20FF40F0
20F020F0
20F020F0
20F020F0
20FF40F0
00A0F080
ENDCHAR
STARTCHAR  043F
ENCODING  1087
SWIDTH  1000 0
DWIDTH  4 0
BBX  4 7 0 0
BITMAP
20FFFFF0
20F020F0
20F020F0
20F020F0
20F020F0
20F020F0
20F020F0
ENDCHAR
STARTCHAR  0440
ENCODING  1088
SWIDTH  1000 0
DWIDTH  4 0
BBX  4 7 0 0
BITMAP
20FFF080
20F030F0
20F030F0
20FFF080
20F00000
20F00000
20F00000
ENDCHAR
STARTCHAR  0441
ENCODING  1089
SWIDTH  1000 0
DWIDTH  4 0
BBX  4 7 0 0
BITMAP
00A0F080
20FF40F0
20F01060
20F00000
20F010A0
20FF40F0
00A0F080
ENDCHAR
STARTCHAR  0442
ENCODING  1090
SWIDTH  1000 0
DWIDTH  3 0
BBX  5 7 -1 0
BITMAP
40FFFFFF20
0020F00000
0020F00000
0020F00000
0020F00000
0020F00000
0020F00000
ENDCHAR
STARTCHAR  0443
ENCODING  1091
SWIDTH  1000 0
DWIDTH  5 0
BBX  5 7 0 0
BITMAP
80A00060A0
20F000A060
00E040E020
0080A0E000
0040FF8000
0010FF4000
00FFC00000
ENDCHAR
STARTCHAR  0444
ENCODING  1092
SWIDTH  1000 0
DWIDTH  6 0
BBX  6 7 0 0
BITMAP
00A0FFFFF080
10FF30F030E0
20F020F020F0
20F020F020F0
10FF30F030E0
00A0F0FFF080
000020F00000
ENDCHAR
STARTCHAR  0445
ENCODING  1093
SWIDTH  1000 0
DWIDTH  4 0
BBX  5 7 0 0
BITMAP
A08020E000
40E0808000
00F0E04000
00C0FF0000
10F0E04000
60A080A000
A06030F010
ENDCHAR
STARTCHAR  0446
ENCODING  1094
SWIDTH  1000 0
DWIDTH  5 0
BBX  5 8 0 -1
BITMAP
20F020F000
20F020F000
20F020F000
20F020F000
20F020F000
20F020F000
20FFFFFFE0
00000080A0
ENDCHAR
STARTCHAR  0447
ENCODING  1095
SWIDTH  1000 0
DWIDTH  4 0
BBX  4 7 0 0
BITMAP
20F020F0
20F020F0
20FF30F0
00C0FFF0
000020F0
000020F0
000020F0
ENDCHAR
STARTCHAR  0448
ENCODING  1096
SWIDTH  1000 0
DWIDTH  6 0
BBX  6 7 0 0
BITMAP
20F020F020F0
20F020F020F0
20F020F020F0
20F020F020F0
20F020F020F0
20F020F020F0
20FFFFFFFFF0
ENDCHAR
STARTCHAR  0449
ENCODING  1097
SWIDTH  1000 0
DWIDTH  6 0
BBX  7 8 0 -1
BITMAP
20F020F020F000
20F020F020F000
20F020F020F000
20F020F020F000
20F020F020F000
20F020F020F000
20FFFFFFFFFF60
00000000008040
ENDCHAR
STARTCHAR  044A
ENCODING  1098
SWIDTH  1000 0
DWIDTH  4 0
BBX  5 7 -1 0
BITMAP
10FFF00000
0020F00000
0020F00000
0020FFF080
0020F030F0
0020F030F0
0020FFF080
ENDCHAR
STARTCHAR  044B
ENCODING  1099
SWIDTH  1000 0
DWIDTH  6 0
BBX  6 7 0 0
BITMAP
20F0000020F0
20F0000020F0
20F0000020F0
20FFF08020F0
20F030F020F0
20F030F020F0
20FFF08020F0
ENDCHAR
STARTCHAR  044C
ENCODING  1100
SWIDTH  1000 0
DWIDTH  4 0
BBX  4 7 0 0
BITMAP
20F00000
20F00000
20F00000
20FFF080
20F030F0
20F030F0
20FFF080
ENDCHAR
STARTCHAR  044D
ENCODING  1101
SWIDTH  1000 0
DWIDTH  4 0
BBX  4 7 0 0
BITMAP
00A0F080
20FF40F0
106020F0
0060FFF0
10A020F0
20FF40F0
00A0F080
ENDCHAR
STARTCHAR  044E
ENCODING  1102
SWIDTH  1000 0
DWIDTH  6 0
BBX  6 7 0 0
BITMAP
20F000A0F080
20F020FF40F0
20F020F020F0
20FFFFF020F0
20F020F020F0
20F020FF40F0
20F000A0F080
ENDCHAR
STARTCHAR  044F
ENCODING  1103
SWIDTH  1000 0
DWIDTH  4 0
BBX  4 7 0 0
BITMAP
00C0FFF0
20FF30F0
10FF30F0
00C0FFF0
10FF30F0
20F020F0
30F020F0
ENDCHAR
STARTCHAR  0451
ENCODING  1105
SWIDTH  1000 0
DWIDTH  4 0
BBX  5 8 0 0
BITMAP
20F020F000
20FFFFFF20
20F0000000
20F0000000
20FFFFC000
20F0000000
20F0000000
20FFFFFF20
ENDCHAR
STARTCHAR  2014
ENCODING  8212
SWIDTH  1000 0
DWIDTH  10 0
BBX  10 1 0 3
BITMAP
FFFFFFFFFFFFFFFFFFFF
ENDCHAR
STARTCHAR  2018
ENCODING  8216
SWIDTH  1000 0
DWIDTH  2 0
BBX  2 3 0 4
BITMAP
0080
20F0
0020
ENDCHAR
STARTCHAR  2019
ENCODING  8217
SWIDTH  1000 0
DWIDTH  2 0
BBX  2 2 0 5
BITMAP
20F0
0080
ENDCHAR
STARTCHAR  201C
ENCODING  8220
SWIDTH  1000 0
DWIDTH  3 0
BBX  3 3 0 4
BITMAP
008080
20F0F0
002020
ENDCHAR
STARTCHAR  201D
ENCODING  8221
SWIDTH  1000 0
DWIDTH  3 0
BBX  3 2 0 5
BITMAP
20FFF0
008080
ENDCHAR
STARTCHAR  2026
ENCODING  8230
SWIDTH  1000 0
DWIDTH  5 0
BBX  5 1 0 0
BITMAP
20FFF0F020
ENDCHAR
STARTCHAR  2030
ENCODING  8240
SWIDTH  1000 0
DWIDTH  9 0
BBX  9 7 0 0
BITMAP
10E0C000C020000000
20FFF020C000000000
20FFF080E0A080A080
20FFF0E0F020FFFFF0
00E0E0A0F020FFFFF0
00008030FF30FFFFF0
00008000C0FFA0E0C0
ENDCHAR
STARTCHAR  2116
ENCODING  8470
SWIDTH  1000 0
DWIDTH  7 0
BBX  7 7 0 0
BITMAP
FFC000FFE06000
FFFF20FF000000
FFE080FFE0C000
FF80E0FFFFE000
FF20FFFFE0C000
FF00C0FF000000
FF0060FFE0E040
ENDCHAR
ENDFONT
